<svg xmlns="http://www.w3.org/2000/svg" xmlns:xlink="http://www.w3.org/1999/xlink" width="61" height="91"><path d="M60.558 22.68L42.667.92C42.383.574 42 .38 41.6.38H7.34C3.292.38 0 4.385 0 9.307v72.146c0 4.922 3.292 8.927 7.34 8.927h46.32c4.047 0 7.34-4.004 7.34-8.927V23.98a2.07 2.07 0 0 0-.442-1.3zM43.1 6.652l12.735 15.5h-8.417c-1.154 0-2.238-.547-3.054-1.54s-1.265-2.3-1.265-3.715V6.652zm14.87 74.802c0 2.897-1.937 5.253-4.32 5.253H7.34c-2.38 0-4.32-2.356-4.32-5.253V9.307c0-2.897 1.937-5.253 4.32-5.253H40.1V16.9c0 2.384.763 4.626 2.15 6.312s3.23 2.615 5.2 2.615h10.55v55.637zm-43.118-27.68h-.676c-.834 0-1.5.823-1.5 1.837s.676 1.837 1.5 1.837h.676c.834 0 1.5-.823 1.5-1.837s-.676-1.837-1.5-1.837zm31.952 0H19.747c-.834 0-1.5.823-1.5 1.837s.676 1.837 1.5 1.837h27.066c.834 0 1.5-.823 1.5-1.837s-.676-1.837-1.5-1.837z"/><use xlink:href="#B"/><use xlink:href="#C"/><use xlink:href="#B" y="-8.392"/><use xlink:href="#C" y="-8.392"/><defs ><path id="B" d="M14.862 45.38h-.676c-.834 0-1.5.822-1.5 1.837s.676 1.837 1.5 1.837h.676c.834 0 1.5-.822 1.5-1.837s-.676-1.837-1.5-1.837z"/><path id="C" d="M46.814 45.38H19.747c-.834 0-1.5.822-1.5 1.837s.676 1.837 1.5 1.837h27.066c.834 0 1.5-.822 1.5-1.837s-.676-1.837-1.5-1.837z"/></defs></svg>