<svg width="18" height="16" viewBox="0 0 18 16" fill="none" xmlns="http://www.w3.org/2000/svg">
<path d="M0.271863 7.17869C2.11332 6.16439 4.16887 5.3178 6.08948 4.46691C9.39368 3.07322 12.711 1.70368 16.0618 0.428655C16.7137 0.211416 17.8851 -0.00100483 18 0.965103C17.9371 2.33267 17.6783 3.69224 17.5009 5.0518C17.0505 8.0416 16.5298 11.0212 16.0221 14.0011C15.8472 14.9938 14.6038 15.5076 13.8081 14.8724C11.8961 13.5808 9.96929 12.3018 8.08162 10.9803C7.46328 10.352 8.03668 9.44972 8.58892 9.00104C10.1638 7.44904 11.8339 6.13043 13.3264 4.49822C13.7291 3.52602 12.5395 4.34536 12.1471 4.59643C9.99112 6.08214 7.88791 7.65856 5.61484 8.96431C4.45376 9.60345 3.10049 9.05726 1.93994 8.70062C0.899372 8.26978 -0.625472 7.83571 0.271758 7.17881L0.271863 7.17869Z" fill="#002C4C"/>
</svg>
