<svg width="47" height="71" viewBox="0 0 47 71" fill="none" xmlns="http://www.w3.org/2000/svg">
<path d="M61.7902 48.6897C60.926 47.9603 59.7869 47.6531 58.6759 47.8466L35.4825 51.8911L28.8947 45.2855C28.676 45.065 28.3789 44.9419 28.0679 44.9419H15.2034H10.5254H0V47.2872H9.35595V63.7046H0V66.0499H10.5254H15.2034C15.8502 66.0499 16.3729 65.5257 16.3729 64.8773V63.7046H19.6054L32.1085 69.9737C32.6488 70.2446 33.2347 70.3806 33.8183 70.3806C34.4837 70.3806 35.148 70.2059 35.7432 69.8576L61.2569 54.933C62.4264 54.2494 63.1527 52.9817 63.1527 51.6238C63.1527 50.4898 62.6556 49.4203 61.7902 48.6897ZM14.0339 63.7046H11.6949V47.2872H14.0339V63.7046ZM60.0781 52.9067L34.5656 67.8312C34.1329 68.0845 33.6054 68.1021 33.1552 67.8758L20.4053 61.4836C20.2428 61.4015 20.0627 61.3593 19.8814 61.3593H16.3729V47.2872H27.5837L36.7981 56.5267C37.1958 56.9254 37.4238 57.4777 37.4238 58.0429C37.4238 59.225 36.4648 60.1866 35.286 60.1866C34.7234 60.1866 34.1714 59.9579 33.7738 59.5592L27.7252 53.4942L26.0715 55.1523L32.1202 61.2174C32.9657 62.0652 34.0896 62.5319 35.286 62.5319C37.7536 62.5319 39.7628 60.5173 39.7628 58.0429C39.7628 56.8445 39.2973 55.7164 38.4518 54.8685L37.5045 53.9187L59.0747 50.1567C59.5109 50.0805 59.9483 50.2001 60.2839 50.4839C60.6207 50.7677 60.8137 51.1828 60.8137 51.6226C60.8137 52.1491 60.5318 52.6416 60.0781 52.9067Z" fill="#004460"/>
<path d="M17.5426 0.380615C8.5141 0.380615 1.16968 7.74497 1.16968 16.798C1.16968 25.851 8.5141 33.2153 17.5426 33.2153C26.5711 33.2153 33.9155 25.851 33.9155 16.798C33.9155 7.74497 26.5711 0.380615 17.5426 0.380615ZM17.5426 30.87C9.80405 30.87 3.50867 24.5575 3.50867 16.798C3.50867 9.03843 9.80405 2.72595 17.5426 2.72595C25.2811 2.72595 31.5765 9.03843 31.5765 16.798C31.5765 24.5575 25.2811 30.87 17.5426 30.87Z" fill="#004460"/>
<path d="M52.6271 7.4165C43.5986 7.4165 36.2542 14.7809 36.2542 23.8339C36.2542 32.8869 43.5986 40.2512 52.6271 40.2512C61.6556 40.2512 69 32.8869 69 23.8339C69 14.7809 61.6556 7.4165 52.6271 7.4165ZM52.6271 37.9059C44.8885 37.9059 38.5931 31.5934 38.5931 23.8339C38.5931 16.0743 44.8885 9.76184 52.6271 9.76184C60.3656 9.76184 66.661 16.0743 66.661 23.8339C66.661 31.5934 60.3656 37.9059 52.6271 37.9059Z" fill="#004460"/>
<path d="M11.6953 10.9348C9.76091 10.9348 8.18677 12.5132 8.18677 14.4528C8.18677 16.3924 9.76091 17.9708 11.6953 17.9708C13.6296 17.9708 15.2037 16.3924 15.2037 14.4528C15.2037 12.5132 13.6296 10.9348 11.6953 10.9348ZM11.6953 15.6255C11.0497 15.6255 10.5258 15.1001 10.5258 14.4528C10.5258 13.8055 11.0497 13.2802 11.6953 13.2802C12.3408 13.2802 12.8647 13.8055 12.8647 14.4528C12.8647 15.1001 12.3408 15.6255 11.6953 15.6255Z" fill="#004460"/>
<path d="M23.3901 10.9348C21.4557 10.9348 19.8816 12.5132 19.8816 14.4528C19.8816 16.3924 21.4557 17.9708 23.3901 17.9708C25.3244 17.9708 26.8986 16.3924 26.8986 14.4528C26.8986 12.5132 25.3244 10.9348 23.3901 10.9348ZM23.3901 15.6255C22.7445 15.6255 22.2206 15.1001 22.2206 14.4528C22.2206 13.8055 22.7445 13.2802 23.3901 13.2802C24.0356 13.2802 24.5596 13.8055 24.5596 14.4528C24.5596 15.1001 24.0356 15.6255 23.3901 15.6255Z" fill="#004460"/>
<path d="M46.7797 17.9707C44.8454 17.9707 43.2712 19.5491 43.2712 21.4887C43.2712 23.4283 44.8454 25.0067 46.7797 25.0067C48.7141 25.0067 50.2882 23.4283 50.2882 21.4887C50.2882 19.5491 48.7141 17.9707 46.7797 17.9707ZM46.7797 22.6614C46.1342 22.6614 45.6102 22.136 45.6102 21.4887C45.6102 20.8414 46.1342 20.316 46.7797 20.316C47.4253 20.316 47.9492 20.8414 47.9492 21.4887C47.9492 22.136 47.4253 22.6614 46.7797 22.6614Z" fill="#004460"/>
<path d="M17.5423 20.3162C14.318 20.3162 11.6948 22.9465 11.6948 26.1795H14.0338C14.0338 24.2399 15.608 22.6615 17.5423 22.6615C19.4766 22.6615 21.0508 24.2399 21.0508 26.1795H23.3898C23.3898 22.9465 20.7666 20.3162 17.5423 20.3162Z" fill="#004460"/>
<path d="M56.136 28.5247C56.136 30.4643 54.5618 32.0427 52.6275 32.0427C50.6932 32.0427 49.119 30.4643 49.119 28.5247H46.78C46.78 31.7577 49.4032 34.388 52.6275 34.388C55.8518 34.388 58.475 31.7577 58.475 28.5247H56.136Z" fill="#004460"/>
<path d="M49.119 0.380615H46.78V2.72595H49.119V0.380615Z" fill="#004460"/>
</svg>
