<svg xmlns="http://www.w3.org/2000/svg" width="70" height="61" fill="#004460"><path d="M.006 30.39c.086 1.435 1.042 2.643 2.427 3.055l25.642 7.715.942 17.59c.043.696.514 1.307 1.185 1.534.186.07.386.1.57.1a1.74 1.74 0 0 0 1.313-.583l9.066-9.988 12.85 8.85a3.38 3.38 0 0 0 1.942.611c1.613 0 3.013-1.137 3.355-2.728L69.966 2.457c.128-.625-.114-1.28-.6-1.676a1.74 1.74 0 0 0-1.77-.27L2.062 27.05C.734 27.647-.08 28.954.006 30.39zm32.267 23.996l-.585-11.096 6.568 4.518-5.982 6.578zm23.615 1.35l-23.386-16.11 32.795-31.57-9.41 47.68zM61.7 6.662L29.275 37.876l-25.614-7.7L61.7 6.662z"/></svg>